<?xml version="1.0" encoding="UTF-8" standalone="no"?>
<svg
   xmlns:dc="http://purl.org/dc/elements/1.1/"
   xmlns:cc="http://creativecommons.org/ns#"
   xmlns:rdf="http://www.w3.org/1999/02/22-rdf-syntax-ns#"
   xmlns:svg="http://www.w3.org/2000/svg"
   xmlns="http://www.w3.org/2000/svg"
   version="1.1"
   id="Capa_1"
   x="0px"
   y="0px"
   viewBox="0 0 384.912 384.912"
   style="enable-background:new 0 0 384.912 384.912;"
   xml:space="preserve"><metadata
   id="metadata41"><rdf:RDF><cc:Work
       rdf:about=""><dc:format>image/svg+xml</dc:format><dc:type
         rdf:resource="http://purl.org/dc/dcmitype/StillImage" /><dc:title></dc:title></cc:Work></rdf:RDF></metadata><defs
   id="defs39" />
<g
   id="g4"
   style="fill:#ffffff">
	<path
   style="fill:#ffffff"
   d="M 384.912,192.46 C 384.912,86.342 298.579,0 192.46,0 86.334,0 0,86.342 0,192.46 c 0,47.447 17.086,92.211 48.284,127.399 l -0.496,0.171 9.267,9.169 3.601,3.56 0.13,-0.049 c 35.823,33.677 82.351,52.202 131.675,52.202 48.999,0 95.243,-18.436 130.984,-51.746 l 0.26,0.089 3.593,-3.536 9.34,-9.177 -0.504,-0.171 c 31.521,-35.253 48.778,-80.188 48.778,-127.911 z M 192.46,368.672 c -42.277,0 -82.334,-14.827 -114.19,-42.017 l 80.001,-27.832 -0.545,-6.292 c -0.049,-0.602 -0.13,-1.187 -0.203,-1.788 -0.057,-0.398 -0.138,-0.813 -0.138,-1.211 v -20.834 c 10.722,6.446 22.573,10.12 35.067,10.12 12.502,0 24.345,-3.674 35.067,-10.12 v 20.834 c 0,0.634 -0.106,1.244 -0.179,1.861 l -0.87,8.064 79.595,27.67 c -31.766,26.889 -71.621,41.545 -113.605,41.545 z M 141.145,230.364 c -11.323,-17.533 -18.289,-40.789 -18.289,-66.354 0,-54.348 31.222,-98.559 69.605,-98.559 38.383,0 69.605,44.211 69.605,98.559 0,25.556 -6.958,48.788 -18.265,66.321 -4.259,6.609 -9.137,12.38 -14.518,17.159 -10.689,9.494 -23.288,15.07 -36.814,15.07 -13.526,0 -26.125,-5.584 -36.814,-15.07 -5.39,-4.771 -10.251,-10.534 -14.51,-17.126 z m 178.3,84.212 -75.653,-26.32 v -32.433 c 20.907,-20.964 34.522,-54.258 34.522,-91.812 0,-63.313 -38.513,-114.816 -85.862,-114.816 -47.349,0 -85.862,51.502 -85.862,114.815 0,37.562 13.623,70.881 34.546,91.837 v 31.742 L 64.971,314.088 C 33.505,281.159 16.248,238.167 16.248,192.468 c 0,-97.161 79.05,-176.203 176.203,-176.203 97.153,0 176.195,79.042 176.195,176.203 0.009,45.951 -17.418,89.098 -49.201,122.108 z"
   id="path2" />
</g>
<g
   id="g6">
</g>
<g
   id="g8">
</g>
<g
   id="g10">
</g>
<g
   id="g12">
</g>
<g
   id="g14">
</g>
<g
   id="g16">
</g>
<g
   id="g18">
</g>
<g
   id="g20">
</g>
<g
   id="g22">
</g>
<g
   id="g24">
</g>
<g
   id="g26">
</g>
<g
   id="g28">
</g>
<g
   id="g30">
</g>
<g
   id="g32">
</g>
<g
   id="g34">
</g>
</svg>
